<svg xmlns="http://www.w3.org/2000/svg" xmlns:xlink="http://www.w3.org/1999/xlink" width="250" zoomAndPan="magnify" viewBox="0 0 187.5 112.499997" height="150" preserveAspectRatio="xMidYMid meet" version="1.0"><path fill="#092f6d" d="M 78.71875 69.835938 C 78.71875 71.894531 77.554688 72.933594 75.183594 72.933594 C 72.816406 72.933594 71.609375 71.894531 71.609375 69.835938 L 71.609375 52.484375 C 71.609375 51.582031 71.902344 50.796875 72.519531 50.253906 C 73.148438 49.679688 74.019531 49.386719 75.183594 49.386719 C 77.554688 49.386719 78.71875 50.425781 78.71875 52.484375 Z M 78.050781 44.800781 C 77.339844 45.546875 76.390625 45.917969 75.304688 45.917969 C 74.21875 45.917969 73.230469 45.546875 72.519531 44.800781 C 71.808594 44.058594 71.433594 43.152344 71.433594 42.078125 C 71.433594 41 71.808594 40.136719 72.601562 39.390625 C 73.390625 38.6875 74.261719 38.3125 75.265625 38.3125 C 76.390625 38.3125 77.300781 38.6875 78.007812 39.390625 C 78.71875 40.09375 79.09375 41 79.09375 42.078125 C 79.09375 43.152344 78.757812 44.015625 78.050781 44.800781 " fill-opacity="1" fill-rule="nonzero"/><path fill="#092f6d" d="M 96.269531 59.757812 C 96.269531 58.230469 95.976562 57.03125 95.359375 56.167969 C 94.730469 55.265625 93.859375 54.851562 92.777344 54.851562 C 89.992188 54.851562 88.613281 56.582031 88.613281 60.050781 L 88.613281 69.96875 C 88.613281 71.949219 87.40625 72.945312 85.039062 72.945312 C 82.667969 72.945312 81.542969 71.949219 81.542969 69.96875 L 81.542969 59.636719 C 81.542969 56.089844 82.589844 53.441406 84.621094 51.660156 C 86.699219 49.878906 89.203125 49.015625 92.1875 49.015625 C 95.640625 49.015625 98.226562 50.253906 99.925781 52.777344 C 101.71875 50.253906 104.371094 49.015625 107.917969 49.015625 C 110.917969 49.015625 113.40625 49.878906 115.28125 51.660156 C 117.195312 53.390625 118.148438 56.074219 118.148438 59.71875 L 118.148438 69.914062 C 118.148438 71.894531 116.941406 72.894531 114.574219 72.894531 C 112.203125 72.894531 111.078125 71.894531 111.078125 69.914062 L 111.078125 59.71875 C 111.078125 56.328125 109.792969 54.601562 107.25 54.601562 C 106.125 54.601562 105.175781 55.050781 104.464844 56.007812 C 103.753906 56.914062 103.378906 58.242188 103.378906 59.890625 L 103.378906 69.929688 C 103.378906 71.910156 102.175781 72.90625 99.804688 72.90625 C 97.4375 72.90625 96.3125 71.910156 96.3125 69.929688 L 96.3125 59.773438 L 96.269531 59.773438 Z M 96.269531 59.757812 " fill-opacity="1" fill-rule="nonzero"/><path fill="#092f6d" d="M 128.214844 57.976562 L 137.492188 57.976562 C 137.277344 56.859375 136.785156 55.957031 135.953125 55.25 C 135.125 54.585938 134.121094 54.253906 132.953125 54.253906 C 130.410156 54.253906 128.832031 55.492188 128.214844 57.976562 M 124.304688 69.835938 C 122.054688 67.5625 120.933594 64.636719 120.933594 61.074219 C 120.933594 57.511719 122.054688 54.800781 124.265625 52.484375 C 126.476562 50.132812 129.339844 48.976562 132.875 48.976562 C 136.410156 48.976562 138.953125 49.972656 141.066406 51.914062 C 143.144531 53.855469 144.226562 56.328125 144.226562 59.304688 C 144.226562 61.460938 143.316406 62.484375 141.523438 62.484375 L 127.960938 62.484375 C 128.082031 65.875 130.210938 67.523438 134.28125 67.523438 C 135.980469 67.523438 137.816406 67.109375 139.847656 66.324219 C 140.761719 65.992188 141.507812 66.167969 142.179688 66.816406 C 142.808594 67.480469 143.128906 68.308594 143.128906 69.210938 C 143.128906 70.113281 142.714844 70.820312 141.84375 71.363281 C 139.890625 72.601562 137.265625 73.226562 134.066406 73.226562 C 129.78125 73.265625 126.542969 72.109375 124.292969 69.835938 " fill-opacity="1" fill-rule="nonzero"/><path fill="#092f6d" d="M 154.925781 56.449219 C 153.800781 57.683594 153.222656 59.214844 153.222656 60.996094 C 153.222656 62.976562 153.761719 64.585938 154.804688 65.832031 C 155.847656 67.082031 157.347656 67.65625 159.25 67.65625 C 161.148438 67.65625 162.527344 67.03125 163.613281 65.753906 C 164.699219 64.519531 165.234375 62.910156 165.234375 61.007812 C 165.234375 59.226562 164.699219 57.699219 163.613281 56.460938 C 162.527344 55.226562 161.070312 54.558594 159.25 54.558594 C 157.507812 54.601562 156.050781 55.226562 154.925781 56.460938 M 165.246094 50.835938 L 165.246094 38.433594 C 165.246094 37.488281 165.542969 36.707031 166.15625 36.160156 C 166.785156 35.628906 167.65625 35.335938 168.742188 35.335938 C 171.109375 35.335938 172.316406 36.371094 172.316406 38.433594 L 172.316406 59.453125 C 172.316406 61.140625 172.0625 62.761719 171.605469 64.292969 C 171.109375 65.820312 170.363281 67.308594 169.355469 68.625 C 168.351562 69.996094 166.949219 71.058594 165.195312 71.882812 C 163.398438 72.707031 161.324219 73.121094 158.996094 73.121094 C 155.125 73.121094 152.007812 72.003906 149.714844 69.730469 C 147.425781 67.457031 146.261719 64.609375 146.261719 61.179688 C 146.261719 57.75 147.46875 54.652344 149.835938 52.378906 C 152.207031 50.105469 155.070312 48.988281 158.40625 48.988281 C 161.363281 48.988281 163.558594 49.613281 165.058594 50.851562 L 165.21875 50.8125 Z M 165.246094 50.835938 " fill-opacity="1" fill-rule="nonzero"/><path fill="#092f6d" d="M 14.320312 49.921875 C 14.320312 54.09375 16.0625 57.804688 18.859375 60.488281 L 30.09375 71.429688 C 32.007812 73.292969 34.914062 75.683594 39.492188 75.683594 C 44.070312 75.683594 47.308594 73.039062 48.890625 71.429688 L 62.410156 57.765625 C 63.121094 57.058594 63.578125 56.074219 63.578125 54.957031 C 63.578125 52.804688 61.875 51.117188 59.746094 51.117188 C 58.621094 51.117188 57.671875 51.570312 56.960938 52.273438 L 43.027344 65.859375 C 42.117188 66.722656 40.855469 67.269531 39.449219 67.269531 C 38.125 67.269531 36.960938 66.738281 36.078125 65.859375 L 24.429688 54.957031 C 23.050781 53.722656 22.179688 51.902344 22.179688 49.921875 C 22.179688 46.199219 25.257812 43.140625 29.046875 43.140625 C 31.003906 43.140625 32.757812 43.964844 34.042969 45.199219 L 36.585938 47.59375 C 37.253906 48.296875 38.246094 48.75 39.371094 48.75 C 41.539062 48.75 43.238281 47.0625 43.238281 44.828125 C 43.238281 43.792969 42.824219 42.886719 42.195312 42.183594 L 39.53125 39.578125 C 36.828125 36.929688 33.132812 35.28125 29.007812 35.28125 C 20.894531 35.296875 14.320312 41.863281 14.320312 49.921875 " fill-opacity="1" fill-rule="nonzero"/><path fill="#05c08a" d="M 28.632812 53.308594 C 28.632812 54.386719 29.046875 55.410156 29.796875 56.074219 L 36.625 62.152344 C 38.5 63.839844 40.574219 63.839844 42.371094 62.152344 L 58.421875 45.707031 C 59.089844 45 59.507812 44.058594 59.507812 42.980469 C 59.507812 40.917969 57.804688 39.257812 55.675781 39.257812 C 54.59375 39.257812 53.640625 39.671875 52.972656 40.335938 L 39.867188 53.761719 C 39.570312 54.054688 39.195312 54.09375 38.914062 53.800781 L 35.339844 50.585938 C 34.671875 49.921875 33.679688 49.46875 32.597656 49.46875 C 30.425781 49.429688 28.648438 51.15625 28.648438 53.308594 " fill-opacity="1" fill-rule="nonzero"/></svg>